<svg width="64" height="64" viewBox="0 0 64 64" fill="none" xmlns="http://www.w3.org/2000/svg">
  <!-- Main Circle -->
  <circle cx="32" cy="32" r="28" fill="#3B82F6" stroke="#1E40AF" stroke-width="2"/>
  
  <!-- Inner Circle -->
  <circle cx="32" cy="32" r="20" fill="#1E40AF"/>
  
  <!-- AI Brain Pattern -->
  <path d="M20 24 C24 20, 28 20, 32 24 C36 20, 40 20, 44 24 C44 28, 40 32, 32 32 C24 32, 20 28, 20 24 Z" fill="#60A5FA"/>
  <path d="M22 28 C26 26, 30 26, 32 28 C34 26, 38 26, 42 28 C42 30, 38 32, 32 32 C26 32, 22 30, 22 28 Z" fill="#93C5FD"/>
  
  <!-- Neural Network Lines -->
  <line x1="24" y1="36" x2="28" y2="40" stroke="#FFFFFF" stroke-width="1.5" opacity="0.8"/>
  <line x1="32" y1="36" x2="28" y2="40" stroke="#FFFFFF" stroke-width="1.5" opacity="0.8"/>
  <line x1="40" y1="36" x2="36" y2="40" stroke="#FFFFFF" stroke-width="1.5" opacity="0.8"/>
  <line x1="32" y1="36" x2="36" y2="40" stroke="#FFFFFF" stroke-width="1.5" opacity="0.8"/>
  
  <!-- Connection Nodes -->
  <circle cx="24" cy="36" r="2" fill="#FFFFFF"/>
  <circle cx="32" cy="36" r="2" fill="#FFFFFF"/>
  <circle cx="40" cy="36" r="2" fill="#FFFFFF"/>
  <circle cx="28" cy="40" r="2" fill="#FFFFFF"/>
  <circle cx="36" cy="40" r="2" fill="#FFFFFF"/>
  
  <!-- Bottom Nodes -->
  <circle cx="26" cy="44" r="1.5" fill="#FFFFFF" opacity="0.6"/>
  <circle cx="32" cy="44" r="1.5" fill="#FFFFFF" opacity="0.6"/>
  <circle cx="38" cy="44" r="1.5" fill="#FFFFFF" opacity="0.6"/>
</svg>
