<svg width="64" height="64" viewBox="0 0 64 64" fill="none" xmlns="http://www.w3.org/2000/svg">
  <!-- Robot Head -->
  <rect x="12" y="16" width="40" height="32" rx="8" fill="#3B82F6" stroke="#1E40AF" stroke-width="2"/>
  
  <!-- Robot Eyes -->
  <circle cx="24" cy="28" r="4" fill="#FFFFFF"/>
  <circle cx="40" cy="28" r="4" fill="#FFFFFF"/>
  <circle cx="24" cy="28" r="2" fill="#1E40AF"/>
  <circle cx="40" cy="28" r="2" fill="#1E40AF"/>
  
  <!-- Eye Highlights -->
  <circle cx="25" cy="27" r="1" fill="#FFFFFF"/>
  <circle cx="41" cy="27" r="1" fill="#FFFFFF"/>
  
  <!-- Robot Mouth -->
  <rect x="28" y="36" width="8" height="2" rx="1" fill="#1E40AF"/>
  <rect x="30" y="38" width="4" height="1" rx="0.5" fill="#1E40AF"/>
  
  <!-- Antenna -->
  <line x1="32" y1="16" x2="32" y2="8" stroke="#1E40AF" stroke-width="2" stroke-linecap="round"/>
  <circle cx="32" cy="6" r="2" fill="#F59E0B"/>
  
  <!-- Side Bolts -->
  <circle cx="8" cy="24" r="2" fill="#6B7280"/>
  <circle cx="56" cy="24" r="2" fill="#6B7280"/>
  <circle cx="8" cy="40" r="2" fill="#6B7280"/>
  <circle cx="56" cy="40" r="2" fill="#6B7280"/>
  
  <!-- Body -->
  <rect x="20" y="48" width="24" height="12" rx="4" fill="#3B82F6" stroke="#1E40AF" stroke-width="2"/>
  
  <!-- Chest Panel -->
  <rect x="26" y="50" width="12" height="8" rx="2" fill="#1E40AF"/>
  <rect x="28" y="52" width="8" height="4" rx="1" fill="#3B82F6"/>
  
  <!-- Arms -->
  <rect x="8" y="20" width="6" height="16" rx="3" fill="#3B82F6" stroke="#1E40AF" stroke-width="2"/>
  <rect x="50" y="20" width="6" height="16" rx="3" fill="#3B82F6" stroke="#1E40AF" stroke-width="2"/>
  
  <!-- Hands -->
  <circle cx="11" cy="38" r="3" fill="#1E40AF"/>
  <circle cx="53" cy="38" r="3" fill="#1E40AF"/>
  
  <!-- Legs -->
  <rect x="24" y="60" width="6" height="4" rx="2" fill="#1E40AF"/>
  <rect x="34" y="60" width="6" height="4" rx="2" fill="#1E40AF"/>
</svg>
